<svg xmlns="http://www.w3.org/2000/svg" viewBox="0 0 200 200">
  <defs>
    <linearGradient id="bootsGrad" x1="0%" y1="0%" x2="0%" y2="100%">
      <stop offset="0%" style="stop-color:#5a3a1a;stop-opacity:1" />
      <stop offset="100%" style="stop-color:#3f2817;stop-opacity:1" />
    </linearGradient>
  </defs>
  <rect width="200" height="200" fill="#faf5f0"/>
  <!-- Left boot shaft -->
  <path d="M 60 60 L 55 140 Q 55 160 70 165 L 80 165 Q 80 160 80 140 L 85 60 Z" fill="url(#bootsGrad)" stroke="#2d1f10" stroke-width="1"/>
  <!-- Right boot shaft -->
  <path d="M 115 60 L 120 140 Q 120 160 130 165 L 145 165 Q 145 160 145 140 L 140 60 Z" fill="url(#bootsGrad)" stroke="#2d1f10" stroke-width="1"/>
  <!-- Sole -->
  <ellipse cx="70" cy="165" rx="12" ry="6" fill="#1a1f2e"/>
  <ellipse cx="130" cy="165" rx="12" ry="6" fill="#1a1f2e"/>
  <!-- Lacing -->
  <line x1="70" y1="75" x2="80" y2="75" stroke="#d4af37" stroke-width="1.5"/>
  <line x1="68" y1="90" x2="82" y2="90" stroke="#d4af37" stroke-width="1.5"/>
  <line x1="67" y1="105" x2="83" y2="105" stroke="#d4af37" stroke-width="1.5"/>
  <!-- Leather texture -->
  <path d="M 60 70 Q 65 85 60 100" stroke="#4a2f1a" stroke-width="0.5" fill="none" opacity="0.5"/>
</svg>