<svg xmlns="http://www.w3.org/2000/svg" viewBox="0 0 200 200">
  <defs>
    <linearGradient id="cleatsGrad" x1="0%" y1="0%" x2="0%" y2="100%">
      <stop offset="0%" style="stop-color:#065f46;stop-opacity:1" />
      <stop offset="100%" style="stop-color:#04441a;stop-opacity:1" />
    </linearGradient>
  </defs>
  <rect width="200" height="200" fill="#f0fdf4"/>
  <!-- Shoe upper -->
  <path d="M 50 110 Q 50 70 75 60 Q 90 55 100 54 Q 110 55 125 60 Q 150 70 150 110" fill="url(#cleatsGrad)" stroke="#022c16" stroke-width="1.5"/>
  <!-- Toe box -->
  <ellipse cx="100" cy="62" rx="32" ry="12" fill="#059669"/>
  <!-- Cleat nubs on sole -->
  <circle cx="70" cy="145" r="3" fill="#1f2937"/>
  <circle cx="85" cy="145" r="3" fill="#1f2937"/>
  <circle cx="100" cy="145" r="3" fill="#1f2937"/>
  <circle cx="115" cy="145" r="3" fill="#1f2937"/>
  <circle cx="130" cy="145" r="3" fill="#1f2937"/>
  <!-- Sole with cleats -->
  <path d="M 50 115 Q 100 135 150 115" fill="#1f2937" stroke="#000" stroke-width="1"/>
  <!-- Laces -->
  <line x1="85" y1="80" x2="115" y2="80" stroke="#fbbf24" stroke-width="1.5"/>
  <line x1="82" y1="92" x2="118" y2="92" stroke="#fbbf24" stroke-width="1.5"/>
  <!-- Stripe accent -->
  <path d="M 55 90 Q 100 85 145 95" stroke="#f0fdf4" stroke-width="2.5" opacity="0.7"/>
</svg>