<svg xmlns="http://www.w3.org/2000/svg" viewBox="0 0 200 200">
  <defs>
    <linearGradient id="pillowGrad" x1="0%" y1="0%" x2="0%" y2="100%">
      <stop offset="0%" style="stop-color:#fca5a5;stop-opacity:1" />
      <stop offset="100%" style="stop-color:#f87171;stop-opacity:1" />
    </linearGradient>
  </defs>
  <rect width="200" height="200" fill="#fff7ed"/>
  <!-- Pillow main body -->
  <path d="M 40 80 Q 40 60 70 50 Q 100 45 130 50 Q 160 60 160 80 L 160 140 Q 160 155 130 160 Q 100 165 70 160 Q 40 155 40 140 Z" fill="url(#pillowGrad)" stroke="#dc2626" stroke-width="1.5"/>
  <!-- Pillow folds/wrinkles -->
  <path d="M 50 90 Q 60 75 80 70" stroke="#dc2626" stroke-width="1" fill="none" opacity="0.5"/>
  <path d="M 150 95 Q 140 78 120 72" stroke="#dc2626" stroke-width="1" fill="none" opacity="0.5"/>
  <!-- Center seam -->
  <path d="M 100 50 Q 98 100 100 160" stroke="#b91c1c" stroke-width="1.5" opacity="0.6"/>
  <!-- Fabric texture folds -->
  <path d="M 70 100 Q 80 110 90 105" stroke="#f87171" stroke-width="0.8" fill="none" opacity="0.4"/>
  <path d="M 130 105 Q 120 115 110 110" stroke="#f87171" stroke-width="0.8" fill="none" opacity="0.4"/>
  <!-- Shadow for depth -->
  <ellipse cx="100" cy="155" rx="55" ry="8" fill="#000" opacity="0.1"/>
</svg>